<mxfile host="app.diagrams.net" modified="2023-04-19T22:26:21.502Z" agent="Mozilla/5.0 (Windows NT 10.0; Win64; x64) AppleWebKit/537.36 (KHTML, like Gecko) Chrome/112.0.0.0 Safari/537.36" etag="3m2i3Zvp1iFAcYL91KCl" version="21.2.1" type="device">
  <diagram name="PÃ¡gina-1" id="Z-22YtipE2zj13dRasnH">
    <mxGraphModel dx="835" dy="407" grid="1" gridSize="10" guides="1" tooltips="1" connect="1" arrows="1" fold="1" page="1" pageScale="1" pageWidth="827" pageHeight="1169" math="0" shadow="0">
      <root>
        <mxCell id="0" />
        <mxCell id="1" parent="0" />
        <mxCell id="DNFtMjHl9jFX2TWQ3cy6-3" style="edgeStyle=orthogonalEdgeStyle;rounded=0;orthogonalLoop=1;jettySize=auto;html=1;endArrow=none;endFill=0;" edge="1" parent="1" source="DNFtMjHl9jFX2TWQ3cy6-1">
          <mxGeometry relative="1" as="geometry">
            <mxPoint x="350" y="130" as="targetPoint" />
          </mxGeometry>
        </mxCell>
        <mxCell id="DNFtMjHl9jFX2TWQ3cy6-1" value="" style="rounded=0;whiteSpace=wrap;html=1;" vertex="1" parent="1">
          <mxGeometry x="120" y="100" width="120" height="60" as="geometry" />
        </mxCell>
      </root>
    </mxGraphModel>
  </diagram>
</mxfile>
